<svg width="24" height="24" viewBox="0 0 24 24" fill="none" xmlns="http://www.w3.org/2000/svg">
<path d="M15.7359 19.6697C15.4573 19.6697 15.2238 19.5753 15.0357 19.3865C14.8475 19.1977 14.7531 18.9642 14.7524 18.6862V13.7687C14.7524 13.49 14.8468 13.2566 15.0357 13.0684C15.2245 12.8802 15.4579 12.7858 15.7359 12.7852H20.6535C20.9321 12.7852 21.1659 12.8796 21.3547 13.0684C21.5435 13.2573 21.6376 13.4907 21.637 13.7687V18.6862C21.637 18.9649 21.5426 19.1986 21.3537 19.3875C21.1649 19.5763 20.9315 19.6704 20.6535 19.6697H15.7359ZM11.8019 10.8182C11.5232 10.8182 11.2898 10.7237 11.1016 10.5349C10.9134 10.3461 10.819 10.1127 10.8184 9.83465V4.9171C10.8184 4.63844 10.9128 4.40502 11.1016 4.21684C11.2905 4.02867 11.5239 3.93425 11.8019 3.93359H20.6535C20.9321 3.93359 21.1659 4.02801 21.3547 4.21684C21.5435 4.40568 21.6376 4.6391 21.637 4.9171V9.83465C21.637 10.1133 21.5426 10.3471 21.3537 10.5359C21.1649 10.7247 20.9315 10.8188 20.6535 10.8182H11.8019ZM2.95031 19.6697C2.67164 19.6697 2.43823 19.5753 2.25005 19.3865C2.06187 19.1977 1.96745 18.9642 1.9668 18.6862V13.7687C1.9668 13.49 2.06121 13.2566 2.25005 13.0684C2.43888 12.8802 2.6723 12.7858 2.95031 12.7852H11.8019C12.0805 12.7852 12.3143 12.8796 12.5031 13.0684C12.692 13.2573 12.786 13.4907 12.7854 13.7687V18.6862C12.7854 18.9649 12.691 19.1986 12.5021 19.3875C12.3133 19.5763 12.0799 19.6704 11.8019 19.6697H2.95031ZM2.95031 10.8182C2.67164 10.8182 2.43823 10.7237 2.25005 10.5349C2.06187 10.3461 1.96745 10.1127 1.9668 9.83465V4.9171C1.9668 4.63844 2.06121 4.40502 2.25005 4.21684C2.43888 4.02867 2.6723 3.93425 2.95031 3.93359H7.86785C8.14651 3.93359 8.38026 4.02801 8.56909 4.21684C8.75793 4.40568 8.85201 4.6391 8.85136 4.9171V9.83465C8.85136 10.1133 8.75694 10.3471 8.56811 10.5359C8.37927 10.7247 8.14586 10.8188 7.86785 10.8182H2.95031ZM12.7854 8.85114H19.67V5.90061H12.7854V8.85114ZM3.93381 17.7027H10.8184V14.7522H3.93381V17.7027ZM16.7194 17.7027H19.67V14.7522H16.7194V17.7027ZM3.93381 8.85114H6.88434V5.90061H3.93381V8.85114Z" fill="#333333"/>
</svg>
