<svg width="24" height="24" viewBox="0 0 24 24" fill="none" xmlns="http://www.w3.org/2000/svg">
<g clip-path="url(#clip0_497_970)">
<path d="M24 15.0004V24.0004H12V15.0004H15V12.0004H21V15.0004H24ZM16.5 15.0004H19.5V13.5004H16.5V15.0004ZM22.5 19.5004H21V21.0004H19.5V19.5004H16.5V21.0004H15V19.5004H13.5V22.5004H22.5V19.5004ZM22.5 16.5004H13.5V18.0004H22.5V16.5004ZM18.3398 10.5004C17.918 10.0238 17.418 9.65662 16.8398 9.3988C16.2617 9.14099 15.6484 9.00818 15 9.00037C14.375 9.00037 13.793 9.11755 13.2539 9.35193C12.7148 9.5863 12.2383 9.90662 11.8242 10.3129C11.4102 10.7191 11.0859 11.1996 10.8516 11.7543C10.6172 12.309 10.5 12.891 10.5 13.5004C10.5 14.2191 10.3398 14.8949 10.0195 15.5277C9.69922 16.1605 9.24609 16.6918 8.66016 17.1215C9.01172 17.3011 9.33984 17.5082 9.64453 17.7426C9.94922 17.9769 10.2344 18.2426 10.5 18.5394V22.5004C10.5 21.8832 10.3828 21.3011 10.1484 20.7543C9.91406 20.2074 9.59375 19.7308 9.1875 19.3246C8.78125 18.9183 8.30078 18.5941 7.74609 18.3519C7.19141 18.1097 6.60938 17.9926 6 18.0004C5.375 18.0004 4.79297 18.1176 4.25391 18.3519C3.71484 18.5863 3.23828 18.9066 2.82422 19.3129C2.41016 19.7191 2.08594 20.1996 1.85156 20.7543C1.61719 21.309 1.5 21.891 1.5 22.5004H0C0 21.9301 0.078125 21.3793 0.234375 20.848C0.390625 20.3168 0.613281 19.8129 0.902344 19.3363C1.19141 18.8597 1.54297 18.4379 1.95703 18.0707C2.37109 17.7035 2.83203 17.3871 3.33984 17.1215C2.76172 16.6996 2.3125 16.1722 1.99219 15.5394C1.67188 14.9066 1.50781 14.2269 1.5 13.5004C1.5 12.8832 1.61719 12.3011 1.85156 11.7543C2.08594 11.2074 2.40625 10.7308 2.8125 10.3246C3.21875 9.91834 3.69531 9.59412 4.24219 9.35193C4.78906 9.10974 5.375 8.99255 6 9.00037C6.71875 9.00037 7.39453 9.16052 8.02734 9.48084C8.66016 9.80115 9.19141 10.2543 9.62109 10.8402C9.91797 10.2543 10.2969 9.73084 10.7578 9.2699C11.2188 8.80896 11.7461 8.42615 12.3398 8.12146C11.7617 7.69959 11.3125 7.17224 10.9922 6.53943C10.6719 5.90662 10.5078 5.22693 10.5 4.50037C10.5 3.88318 10.6172 3.30115 10.8516 2.75427C11.0859 2.2074 11.4063 1.73084 11.8125 1.32459C12.2188 0.918335 12.6953 0.594116 13.2422 0.351929C13.7891 0.109741 14.375 -0.00744629 15 0.000366211C15.6172 0.000366211 16.1992 0.117554 16.7461 0.351929C17.293 0.586304 17.7695 0.906616 18.1758 1.31287C18.582 1.71912 18.9063 2.19959 19.1484 2.75427C19.3906 3.30896 19.5078 3.89099 19.5 4.50037C19.5 5.21912 19.3398 5.8949 19.0195 6.52771C18.6992 7.16052 18.2461 7.69177 17.6602 8.12146C18.1914 8.38709 18.6719 8.71912 19.1016 9.11755C19.5313 9.51599 19.8945 9.97693 20.1914 10.5004H18.3398ZM6 16.5004C6.41406 16.5004 6.80078 16.4222 7.16016 16.266C7.51953 16.1097 7.83984 15.8949 8.12109 15.6215C8.40234 15.348 8.61719 15.0316 8.76563 14.6722C8.91406 14.3129 8.99219 13.9222 9 13.5004C9 13.0863 8.92188 12.6996 8.76563 12.3402C8.60938 11.9808 8.39453 11.6605 8.12109 11.3793C7.84766 11.098 7.53125 10.8832 7.17188 10.7347C6.8125 10.5863 6.42188 10.5082 6 10.5004C5.58594 10.5004 5.19922 10.5785 4.83984 10.7347C4.48047 10.891 4.16016 11.1058 3.87891 11.3793C3.59766 11.6527 3.38281 11.9691 3.23438 12.3285C3.08594 12.6879 3.00781 13.0785 3 13.5004C3 13.9144 3.07813 14.3011 3.23438 14.6605C3.39063 15.0199 3.60547 15.3402 3.87891 15.6215C4.15234 15.9027 4.46875 16.1176 4.82813 16.266C5.1875 16.4144 5.57813 16.4926 6 16.5004ZM12 4.50037C12 4.91443 12.0781 5.30115 12.2344 5.66052C12.3906 6.0199 12.6055 6.34021 12.8789 6.62146C13.1523 6.90271 13.4688 7.11755 13.8281 7.26599C14.1875 7.41443 14.5781 7.49255 15 7.50037C15.4141 7.50037 15.8008 7.42224 16.1602 7.26599C16.5195 7.10974 16.8398 6.8949 17.1211 6.62146C17.4023 6.34802 17.6172 6.03162 17.7656 5.67224C17.9141 5.31287 17.9922 4.92224 18 4.50037C18 4.0863 17.9219 3.69959 17.7656 3.34021C17.6094 2.98084 17.3945 2.66052 17.1211 2.37927C16.8477 2.09802 16.5313 1.88318 16.1719 1.73474C15.8125 1.5863 15.4219 1.50818 15 1.50037C14.5859 1.50037 14.1992 1.57849 13.8398 1.73474C13.4805 1.89099 13.1602 2.10584 12.8789 2.37927C12.5977 2.65271 12.3828 2.96912 12.2344 3.32849C12.0859 3.68787 12.0078 4.07849 12 4.50037Z" fill="white"/>
</g>
<defs>
<clipPath id="clip0_497_970">
<rect width="24" height="24" fill="white"/>
</clipPath>
</defs>
</svg>
